<svg width="64" height="64" viewBox="0 0 24 24" fill="#d4af37" xmlns="http://www.w3.org/2000/svg">
  <path d="M12 2C6.48 2 2 6.48 2 12s4.48 10 10 10 
           10-4.48 10-10S17.52 2 12 2zm0 15c-.83 0-1.5-.67-1.5-1.5S11.17 14 
           12 14s1.5.67 1.5 1.5S12.83 17 12 17zm2.07-7.75c-.9.92-1.07 
           1.16-1.07 1.75h-2v-.5c0-1.1.45-1.99 1.16-2.74.79-.85 
           1.23-1.26 1.23-2.01 0-.89-.72-1.61-1.61-1.61S10 6.66 
           10 7.55H8c0-2.07 1.68-3.75 3.75-3.75S15.5 5.48 
           15.5 7.55c0 1.27-.49 1.89-1.43 2.7z"/>
</svg>
